<svg version="1.1" xmlns="http://www.w3.org/2000/svg" xmlns:xlink="http://www.w3.org/1999/xlink" x="0px" y="0px" viewBox="0 0 48 48" style="enable-background:new 0 0 48 48;" xml:space="preserve" width="48" height="48">
<path style="fill:#039BE5;" d="M36.5,12c-1.326,0-2.59,0.256-3.758,0.705C31.321,10.48,28.836,9,26,9&#10;&#9;c-2.107,0-4.018,0.821-5.447,2.152C18.815,9.221,16.303,8,13.5,8C8.253,8,4,12.253,4,17.5c0,0.792,0.108,1.558,0.29,2.293&#10;&#9;C2.291,21.349,1,23.771,1,26.5C1,31.194,4.806,35,9.5,35c0.413,0,0.816-0.039,1.214-0.096C12.027,37.903,15.017,40,18.5,40&#10;&#9;c3.162,0,5.916-1.731,7.38-4.293C26.556,35.893,27.265,36,28,36c2.62,0,4.938-1.265,6.398-3.211C35.077,32.927,35.78,33,36.5,33&#10;&#9;C42.299,33,47,28.299,47,22.5C47,16.701,42.299,12,36.5,12z"/>
<g>
	<path style="fill:#FFFFFF;" d="M15.823,25c0.045,0,0.076-0.037,0.076-0.083C15.899,24.963,15.867,25,15.823,25L15.823,25z"/>
	<path style="fill:#FFFFFF;" d="M21.503,23.934c0.024,0,0.047,0.008,0.055,0.013c-0.008-0.005-0.03-0.013-0.053-0.013&#10;&#9;&#9;C21.504,23.933,21.503,23.934,21.503,23.934z"/>
	<path style="fill:#FFFFFF;" d="M7.138,23.93c0.023,0,0.045,0.008,0.058,0.016c-0.013-0.007-0.034-0.017-0.056-0.017&#10;&#9;&#9;C7.139,23.929,7.138,23.93,7.138,23.93z"/>
	<path style="fill:#FFFFFF;" d="M24.126,21.909c-0.016,0.039-0.046,0.045-0.072,0.043c0.004,0.001,0.004,0.003,0.009,0.003&#10;&#9;&#9;C24.086,21.954,24.112,21.944,24.126,21.909z"/>
	<path style="fill:#FFFFFF;" d="M15.823,19c0.045,0,0.076,0.037,0.076,0.082C15.899,19.037,15.867,19,15.823,19L15.823,19z"/>
	<path style="fill:#FFFFFF;" d="M21.359,22.185L21.359,22.185c0,0.408,0.211,0.662,0.506,0.835&#10;&#9;&#9;C21.569,22.847,21.359,22.594,21.359,22.185z"/>
	<path style="fill:#FFFFFF;" d="M38.126,24.729c0.025,0.061-0.032,0.087-0.032,0.087S38.151,24.79,38.126,24.729z"/>
	<path style="fill:#FFFFFF;" d="M8.558,21L8.558,21c0.253,0,0.503,0.034,0.733,0.093C9.061,21.034,8.811,21,8.558,21z"/>
	<path style="fill:#FFFFFF;" d="M9.764,21.909c-0.016,0.039-0.046,0.045-0.072,0.043c0.004,0.001,0.004,0.003,0.009,0.003&#10;&#9;&#9;C9.725,21.954,9.75,21.944,9.764,21.909z"/>
	<path style="fill:#FFFFFF;" d="M35.195,24.164c0.065,0.106,0.142,0.203,0.229,0.293s0.185,0.169,0.294,0.237&#10;&#9;&#9;c-0.109-0.068-0.207-0.147-0.294-0.237C35.337,24.368,35.261,24.27,35.195,24.164z"/>
	<path style="fill:#FFFFFF;" d="M37.83,21.797c-0.012,0-0.026-0.002-0.026-0.002s0.01,0.004,0.024,0.004&#10;&#9;&#9;C37.828,21.799,37.829,21.797,37.83,21.797z"/>
	<path style="fill:#FFFFFF;" d="M37.832,24.189c0,0,0.017-0.003,0.034-0.004c-0.001,0-0.001-0.001-0.002-0.001&#10;&#9;&#9;C37.846,24.184,37.832,24.189,37.832,24.189z"/>
</g>
<path style="fill:#FFFFFF;" d="M6.885,24.462c-0.029,0.07,0.01,0.084,0.02,0.096c0.087,0.058,0.174,0.1,0.262,0.146&#10;&#9;C7.636,24.933,8.08,25,8.543,25c0.944,0,1.53-0.462,1.53-1.207v-0.014c0-0.689-0.662-0.939-1.282-1.12L8.71,22.635&#10;&#9;c-0.468-0.14-0.871-0.261-0.871-0.545v-0.014c0-0.243,0.236-0.422,0.602-0.422c0.406,0,0.888,0.125,1.199,0.283&#10;&#9;c0,0,0.092,0.054,0.125-0.027c0.018-0.044,0.175-0.434,0.192-0.476c0.018-0.045-0.014-0.08-0.046-0.098&#10;&#9;C9.555,21.136,9.065,21,8.558,21l-0.094,0.001c-0.864,0-1.467,0.481-1.467,1.17v0.014c0,0.726,0.665,0.962,1.289,1.126l0.1,0.029&#10;&#9;c0.454,0.128,0.846,0.239,0.846,0.533v0.015c0,0.269-0.255,0.47-0.665,0.47c-0.16,0-0.667-0.002-1.216-0.322&#10;&#9;C7.285,24,7.247,23.975,7.196,23.946c-0.027-0.016-0.095-0.042-0.124,0.039L6.885,24.462z"/>
<path style="fill:#FFFFFF;" d="M21.247,24.462c-0.029,0.07,0.01,0.084,0.02,0.096c0.087,0.058,0.174,0.1,0.262,0.146&#10;&#9;C21.998,24.933,22.442,25,22.905,25c0.944,0,1.53-0.462,1.53-1.207v-0.014c0-0.689-0.662-0.939-1.282-1.12l-0.081-0.024&#10;&#9;c-0.468-0.14-0.871-0.261-0.871-0.545v-0.014c0-0.243,0.236-0.422,0.602-0.422c0.406,0,0.888,0.125,1.199,0.283&#10;&#9;c0,0,0.092,0.054,0.125-0.027c0.018-0.044,0.175-0.434,0.192-0.476c0.018-0.045-0.014-0.08-0.046-0.098&#10;&#9;C23.917,21.136,23.427,21,22.92,21l-0.094,0.001c-0.864,0-1.467,0.481-1.467,1.17v0.014c0,0.726,0.666,0.962,1.289,1.126l0.1,0.029&#10;&#9;c0.454,0.128,0.846,0.239,0.846,0.533v0.015c0,0.269-0.255,0.47-0.665,0.47c-0.16,0-0.667-0.002-1.216-0.322&#10;&#9;c-0.066-0.036-0.105-0.06-0.155-0.09c-0.017-0.01-0.097-0.039-0.124,0.039L21.247,24.462z"/>
<path style="fill:#FFFFFF;" d="M31.465,22.219c-0.077-0.243-0.198-0.457-0.358-0.635c-0.16-0.179-0.364-0.322-0.605-0.426&#10;&#9;C30.261,21.053,29.977,21,29.658,21c-0.32,0-0.604,0.053-0.845,0.157s-0.444,0.248-0.604,0.427&#10;&#9;c-0.161,0.178-0.281,0.392-0.358,0.634c-0.077,0.241-0.116,0.505-0.116,0.785s0.039,0.544,0.116,0.785&#10;&#9;c0.077,0.242,0.197,0.456,0.358,0.635c0.16,0.179,0.364,0.322,0.605,0.423S29.338,25,29.658,25c0.319,0,0.602-0.051,0.844-0.153&#10;&#9;c0.241-0.102,0.444-0.245,0.605-0.423c0.16-0.178,0.281-0.392,0.358-0.635c0.077-0.241,0.116-0.505,0.116-0.785&#10;&#9;C31.581,22.724,31.542,22.46,31.465,22.219 M30.677,23.004c0,0.423-0.085,0.758-0.253,0.993c-0.166,0.233-0.417,0.347-0.767,0.347&#10;&#9;s-0.6-0.114-0.763-0.347c-0.166-0.236-0.249-0.57-0.249-0.993s0.084-0.756,0.249-0.99c0.164-0.231,0.414-0.343,0.764-0.343&#10;&#9;s0.6,0.112,0.767,0.343C30.592,22.247,30.677,22.581,30.677,23.004"/>
<path style="fill:#FFFFFF;" d="M37.933,24.233c-0.026-0.071-0.101-0.044-0.101-0.044c-0.114,0.041-0.236,0.078-0.366,0.097&#10;&#9;c-0.131,0.019-0.276,0.029-0.431,0.029c-0.381,0-0.684-0.105-0.901-0.313c-0.217-0.208-0.339-0.544-0.338-0.999&#10;&#9;c0.001-0.413,0.109-0.724,0.302-0.962c0.192-0.236,0.485-0.357,0.874-0.357c0.325,0,0.573,0.035,0.832,0.11&#10;&#9;c0,0,0.062,0.025,0.091-0.05c0.07-0.178,0.12-0.304,0.194-0.499c0.021-0.056-0.03-0.079-0.049-0.086&#10;&#9;c-0.102-0.037-0.343-0.098-0.525-0.124C37.345,21.013,37.145,21,36.924,21c-0.331,0-0.625,0.053-0.878,0.157&#10;&#9;c-0.252,0.103-0.465,0.247-0.635,0.426c-0.169,0.179-0.297,0.392-0.383,0.634c-0.086,0.241-0.128,0.506-0.128,0.787&#10;&#9;c0,0.606,0.176,1.095,0.524,1.453C35.773,24.818,36.296,25,36.979,25c0.404,0,0.817-0.076,1.116-0.184c0,0,0.057-0.026,0.032-0.087&#10;&#9;L37.933,24.233z"/>
<path style="fill:#FFFFFF;" d="M41.963,22.081c-0.067-0.235-0.233-0.471-0.341-0.579c-0.172-0.172-0.34-0.292-0.506-0.358&#10;&#9;C40.898,21.057,40.638,21,40.352,21c-0.333,0-0.635,0.052-0.88,0.159c-0.245,0.107-0.452,0.253-0.614,0.435&#10;&#9;c-0.162,0.181-0.283,0.397-0.361,0.642c-0.078,0.243-0.117,0.509-0.117,0.789c0,0.285,0.041,0.551,0.121,0.79&#10;&#9;c0.081,0.241,0.211,0.453,0.386,0.629c0.176,0.177,0.401,0.315,0.671,0.412c0.268,0.096,0.594,0.146,0.968,0.145&#10;&#9;c0.77-0.002,1.176-0.161,1.343-0.247c0.03-0.016,0.057-0.042,0.023-0.119l-0.175-0.453c-0.026-0.067-0.1-0.043-0.1-0.043&#10;&#9;c-0.191,0.066-0.462,0.184-1.095,0.183c-0.414-0.001-0.72-0.113-0.912-0.291c-0.197-0.181-0.294-0.447-0.31-0.822l2.666,0.002&#10;&#9;c0,0,0.07-0.001,0.078-0.065C42.045,23.119,42.134,22.637,41.963,22.081 M39.311,22.597c0.038-0.235,0.107-0.431,0.216-0.583&#10;&#9;c0.163-0.231,0.412-0.359,0.762-0.359c0.35,0,0.581,0.128,0.747,0.359c0.11,0.153,0.158,0.356,0.177,0.584L39.311,22.597z"/>
<path style="fill:#FFFFFF;" d="M20.453,22.081c-0.067-0.235-0.233-0.471-0.341-0.579c-0.172-0.172-0.339-0.292-0.506-0.358&#10;&#9;C19.388,21.057,19.128,21,18.843,21c-0.333,0-0.635,0.052-0.881,0.159c-0.245,0.107-0.452,0.253-0.614,0.435&#10;&#9;c-0.162,0.181-0.283,0.397-0.361,0.642c-0.078,0.243-0.117,0.509-0.117,0.789c0,0.285,0.041,0.551,0.121,0.79&#10;&#9;c0.081,0.241,0.211,0.453,0.386,0.629c0.176,0.177,0.401,0.315,0.671,0.412c0.268,0.096,0.594,0.146,0.968,0.145&#10;&#9;c0.77-0.002,1.176-0.161,1.343-0.247c0.03-0.016,0.057-0.042,0.023-0.119l-0.175-0.453c-0.026-0.067-0.1-0.043-0.1-0.043&#10;&#9;c-0.191,0.066-0.462,0.184-1.095,0.183c-0.413-0.001-0.72-0.113-0.912-0.291c-0.197-0.181-0.294-0.447-0.31-0.822l2.666,0.002&#10;&#9;c0,0,0.07-0.001,0.078-0.065C20.536,23.119,20.624,22.637,20.453,22.081 M17.802,22.597c0.038-0.235,0.107-0.431,0.215-0.583&#10;&#9;c0.164-0.231,0.412-0.359,0.763-0.359c0.35,0,0.581,0.128,0.748,0.359c0.11,0.153,0.158,0.356,0.176,0.584L17.802,22.597z"/>
<path style="fill:#FFFFFF;" d="M12.93,22.482c-0.108-0.007-0.248-0.011-0.416-0.011c-0.229,0-0.45,0.026-0.657,0.078&#10;&#9;c-0.208,0.052-0.395,0.132-0.556,0.239c-0.162,0.108-0.292,0.245-0.387,0.408s-0.143,0.355-0.143,0.569&#10;&#9;c0,0.219,0.041,0.409,0.122,0.564c0.081,0.156,0.198,0.286,0.347,0.387c0.148,0.1,0.331,0.174,0.543,0.218&#10;&#9;C11.994,24.977,12.231,25,12.491,25c0.274,0,0.546-0.021,0.81-0.063c0.262-0.041,0.582-0.101,0.671-0.121&#10;&#9;c0.089-0.019,0.187-0.044,0.187-0.044c0.066-0.016,0.061-0.081,0.061-0.081l-0.001-2.259c0-0.496-0.143-0.863-0.423-1.091&#10;&#9;C13.515,21.115,13.102,21,12.57,21c-0.2,0-0.521,0.025-0.715,0.061c0,0-0.582,0.105-0.821,0.279c0,0-0.053,0.03-0.024,0.098&#10;&#9;l0.189,0.47c0.024,0.061,0.088,0.04,0.088,0.04s0.02-0.007,0.044-0.021c0.512-0.258,1.161-0.251,1.161-0.251&#10;&#9;c0.288,0,0.51,0.054,0.659,0.16c0.145,0.104,0.219,0.259,0.219,0.589v0.105C13.141,22.499,12.93,22.482,12.93,22.482 M11.869,24.218&#10;&#9;c-0.105-0.077-0.119-0.096-0.153-0.147c-0.053-0.076-0.08-0.184-0.08-0.321c0-0.217,0.078-0.373,0.238-0.478&#10;&#9;c-0.001,0,0.23-0.185,0.773-0.179c0.382,0.004,0.724,0.057,0.724,0.057v1.123c0,0-0.339,0.067-0.72,0.088&#10;&#9;C12.109,24.392,11.867,24.217,11.869,24.218"/>
<path style="fill:#FFFFFF;" d="M34.76,21.169c0.02-0.058-0.022-0.085-0.04-0.092c-0.045-0.016-0.272-0.062-0.447-0.073&#10;&#9;c-0.335-0.019-0.521,0.034-0.688,0.106c-0.166,0.071-0.349,0.187-0.45,0.318l-0.001-0.311c0-0.043-0.032-0.077-0.076-0.077h-0.684&#10;&#9;c-0.045,0-0.076,0.034-0.076,0.077v3.806c0,0.043,0.036,0.077,0.081,0.077h0.7c0.045,0,0.08-0.034,0.08-0.077v-1.901&#10;&#9;c0-0.256,0.03-0.51,0.089-0.67c0.057-0.158,0.136-0.285,0.233-0.375c0.097-0.091,0.208-0.154,0.33-0.19&#10;&#9;c0.124-0.036,0.261-0.049,0.357-0.049c0.14,0,0.293,0.035,0.293,0.035c0.052,0.005,0.08-0.025,0.098-0.069&#10;&#9;C34.606,21.588,34.736,21.238,34.76,21.169"/>
<path style="fill:#FFFFFF;" d="M28.203,19.106c-0.085-0.026-0.162-0.044-0.264-0.062c-0.103-0.019-0.224-0.028-0.362-0.028&#10;&#9;c-0.482,0-0.862,0.137-1.129,0.406c-0.265,0.267-0.446,0.674-0.536,1.209l-0.05,0.366h-0.605c0,0-0.074-0.003-0.089,0.078&#10;&#9;l-0.099,0.554c-0.007,0.053,0.016,0.086,0.087,0.086h0.59l-0.598,3.337c-0.047,0.268-0.1,0.489-0.16,0.657&#10;&#9;c-0.058,0.166-0.116,0.289-0.186,0.379c-0.068,0.087-0.133,0.151-0.244,0.189c-0.092,0.03-0.198,0.045-0.314,0.045&#10;&#9;c-0.064,0-0.15-0.011-0.214-0.024c-0.064-0.012-0.097-0.026-0.144-0.046c0,0-0.069-0.026-0.097,0.043&#10;&#9;c-0.022,0.057-0.178,0.489-0.197,0.542c-0.019,0.053,0.007,0.094,0.041,0.106c0.078,0.028,0.137,0.046,0.243,0.071&#10;&#9;c0.149,0.035,0.274,0.037,0.391,0.037c0.245,0,0.469-0.034,0.654-0.101c0.187-0.068,0.349-0.185,0.493-0.343&#10;&#9;c0.155-0.172,0.253-0.352,0.346-0.597c0.093-0.243,0.171-0.544,0.235-0.896l0.6-3.399h0.878c0,0,0.074,0.003,0.089-0.078&#10;&#9;l0.099-0.554c0.007-0.053-0.016-0.086-0.087-0.086h-0.853c0.004-0.019,0.06-0.505,0.158-0.787c0.042-0.121,0.12-0.218,0.187-0.285&#10;&#9;c0.065-0.066,0.141-0.112,0.223-0.139c0.085-0.027,0.181-0.041,0.286-0.041c0.08,0,0.159,0.009,0.219,0.022&#10;&#9;c0.082,0.018,0.115,0.027,0.137,0.033c0.087,0.027,0.098,0.001,0.116-0.041l0.203-0.56C28.273,19.139,28.222,19.114,28.203,19.106"/>
<path style="fill:#FFFFFF;" d="M15.899,24.917c0,0.046-0.032,0.083-0.076,0.083h-0.707c-0.045,0-0.076-0.037-0.076-0.083v-5.834&#10;&#9;c0-0.046,0.032-0.082,0.076-0.082h0.707c0.045,0,0.076,0.037,0.076,0.082V24.917z"/>
</svg>